<svg width="278" height="104" viewBox="0 0 278 104" fill="none" xmlns="http://www.w3.org/2000/svg">
<path d="M27.7664 18.3084C6.62072 18.3084 0.5 35.4347 0.5 62.5C0.5 83.9417 0.848658 89.2892 28.3125 89.2892C60.6386 89.2892 62.7109 67.995 62.7109 67.995L48.138 74C48.138 74 43.6889 79.4611 27.3569 79.4611C14.055 79.4611 21 70.4752 21 57.8803H64.3489L40.138 43.5C40.138 31.0396 56.4388 18.3084 27.7664 18.3084ZM33.5 30C46.1621 30 27.2204 27.3738 27.2204 39L4.83418 47.7927C4.83418 35.4501 22.3809 30 33.5 30Z" fill="#E53238"/>
<g filter="url(#filter0_d_101_9)">
<path d="M64.6817 0.5V84.097C64.6817 88.8423 73.1044 68.5 73.1044 68.5L79.2828 95.5051C79.2828 95.5051 79.819 90.7198 79.819 86.3464C79.819 86.3464 88.93 95.5051 109 95.5051C130.135 95.5051 135.5 79 142.761 62.1987C142.761 42.6421 131.27 29.5 109 29.5C88.1458 29.5 79.9699 38.1744 79.9699 38.1744L73.1044 22.5L64.6817 0.5ZM103.448 37.2531C94.5 69.5 126.926 47.9047 126.926 62.1987C126.926 77.5264 116.386 87.5539 103.551 87.5539C88.2327 87.5539 79.9699 75.5938 79.9699 62.3352C79.9699 49.9808 87.3844 37.2531 103.448 37.2531Z" fill="#0064D2"/>
<path d="M80.1736 85.9939L80.1735 85.9938L80.1732 85.9935L80.1732 85.9934L79.319 85.1348V86.3464C79.319 88.4313 79.196 90.6149 79.0679 92.3237L73.5918 68.3885L73.2422 66.8603L72.6424 68.3087L73.1044 68.5C72.6424 68.3087 72.6424 68.3088 72.6423 68.3089L72.6421 68.3096L72.6409 68.3123L72.6364 68.3232L72.6185 68.3663L72.5484 68.5347C72.4869 68.6821 72.3966 68.8978 72.2817 69.1708C72.0518 69.7167 71.7233 70.4915 71.3291 71.4065C70.5405 73.2371 69.49 75.6263 68.4403 77.8658C67.387 80.1131 66.3463 82.1839 65.576 83.3933C65.4304 83.622 65.2985 83.8133 65.1817 83.9659V3.20444L72.6374 22.6788L72.6417 22.6898L72.6464 22.7006L79.5119 38.375L79.8152 39.0675L80.3333 38.5179L80.3334 38.5177L80.3335 38.5176L80.3338 38.5174L80.3363 38.5147L80.3509 38.4998C80.3646 38.4858 80.3864 38.4638 80.4164 38.4345C80.4764 38.3758 80.5692 38.2875 80.6959 38.1738C80.9493 37.9464 81.3384 37.6172 81.8718 37.2201C82.9386 36.4259 84.5832 35.3595 86.8759 34.2904C91.4594 32.1531 98.6447 30 109 30C120.036 30 128.335 33.2542 133.876 38.8669C139.398 44.4613 142.24 52.46 142.261 62.0956C141.748 63.2816 141.246 64.4636 140.749 65.6364C137.717 72.776 134.831 79.5717 130.69 84.8435C125.887 90.958 119.403 95.0051 109 95.0051C99.0439 95.0051 91.8221 92.7341 87.099 90.4747C84.7365 89.3446 82.9972 88.2164 81.8524 87.3746C81.28 86.9537 80.8563 86.6045 80.5776 86.3625C80.4383 86.2414 80.3352 86.1472 80.268 86.0843C80.2588 86.0757 80.2503 86.0677 80.2425 86.0603C80.2216 86.0405 80.2055 86.025 80.194 86.0139L80.1771 85.9974L80.1736 85.9939ZM103.93 37.3867L104.106 36.7531H103.448C95.2692 36.7531 89.2564 40.0001 85.2979 44.8449C81.3504 49.6763 79.4699 56.065 79.4699 62.3352C79.4699 69.0641 81.5663 75.4899 85.6363 80.2418C89.7143 85.003 95.7496 88.0539 103.551 88.0539C116.682 88.0539 127.426 77.7824 127.426 62.1987C127.426 60.3117 126.888 58.9427 125.898 57.9861C124.924 57.0443 123.577 56.5645 122.083 56.3124C120.587 56.0599 118.88 56.0263 117.138 56.0268C116.788 56.0269 116.436 56.0284 116.083 56.0299C114.669 56.0359 113.244 56.042 111.862 55.9591C108.388 55.7509 105.401 54.9886 103.761 52.4719C102.105 49.9315 101.699 45.4251 103.93 37.3867Z" stroke="black"/>
</g>
<path d="M187.5 23.5C155.688 23.5 144.693 35.7272 144.693 38.5106H160.527C160.527 38.5106 160.404 38.5106 176.5 38.5106C186.959 38.5106 196.017 33.1287 196.017 42.3327V45.6087H190C165.355 45.6087 144.693 52.8184 144.693 67.4489C144.693 81.8475 151.817 89.6817 168.086 89.6817C190.257 89.6817 197.399 77.4306 197.399 77.4306C197.399 82.3034 197.775 87.1052 197.775 87.1052L207.5 64C207.5 64 211.305 81.1532 211.305 77.3453V44.4314C211.305 22.8501 202.853 23.5 187.5 23.5ZM171.805 67.4489L196.017 59.8049C196.017 65.502 192.502 79.6658 171.805 79.6658C160.472 79.6658 155.613 74.0097 155.613 67.4489C155.613 55.5137 147.765 67.4489 171.805 67.4489Z" fill="#F5AF02"/>
<path d="M210.908 29.7415L218.5 7.78265L244.065 59L272.5 61L277.5 5.5L231.041 96.683L222.322 98.9657L235.908 69.7415L210.908 29.7415Z" fill="#86B817"/>
<defs>
<filter id="filter0_d_101_9" x="60.6817" y="0.5" width="86.0789" height="103.005" filterUnits="userSpaceOnUse" color-interpolation-filters="sRGB">
<feFlood flood-opacity="0" result="BackgroundImageFix"/>
<feColorMatrix in="SourceAlpha" type="matrix" values="0 0 0 0 0 0 0 0 0 0 0 0 0 0 0 0 0 0 127 0" result="hardAlpha"/>
<feOffset dy="4"/>
<feGaussianBlur stdDeviation="2"/>
<feComposite in2="hardAlpha" operator="out"/>
<feColorMatrix type="matrix" values="0 0 0 0 0 0 0 0 0 0 0 0 0 0 0 0 0 0 0.25 0"/>
<feBlend mode="normal" in2="BackgroundImageFix" result="effect1_dropShadow_101_9"/>
<feBlend mode="normal" in="SourceGraphic" in2="effect1_dropShadow_101_9" result="shape"/>
</filter>
</defs>
</svg>
