<svg width="358" height="129" viewBox="0 0 358 129" fill="none" xmlns="http://www.w3.org/2000/svg">
<rect width="358" height="129" fill="#F5F5F5"/>
<path d="M115.266 35C94.1207 35 88 52.1263 88 79.1916C88 100.633 88.3487 105.981 115.812 105.981C142.672 105.981 148.645 91.2793 149.897 86.3073C150.081 85.5761 149.371 85.0328 148.674 85.3201L135.872 90.5951C135.719 90.6584 135.586 90.7556 135.469 90.8733C134.523 91.8208 129.403 96.1527 114.857 96.1527C101.91 96.1527 108.144 87.6404 108.486 75.5731C108.501 75.021 108.948 74.5719 109.5 74.5719H148.207C149.224 74.5719 149.592 73.2312 148.718 72.7121L128.127 60.4823C127.824 60.3021 127.636 59.9756 127.649 59.623C128.123 47.3469 143.503 35 115.266 35ZM121 46.6916C133.285 46.6916 115.82 44.2194 114.769 54.6911C114.714 55.2406 114.273 55.6916 113.72 55.6916H91.3736C90.8213 55.6916 90.3677 55.2387 90.4191 54.6888C91.4623 43.534 110.193 46.6916 121 46.6916Z" fill="#E53238"/>
<g filter="url(#filter0_d_0_1)">
<path d="M5.9339 17.0513C5.53723 16.0153 4 16.2995 4 17.4089V95.597C4 99.2048 8.86862 88.311 11.2027 82.8809C11.5875 81.9859 12.9046 82.1067 13.1219 83.0565L18.3385 105.858C18.4761 106.459 19.1162 106.791 19.679 106.538C21.0317 105.931 23.4442 104.779 25.6647 103.367C26.655 102.738 33.1055 103.565 34.1027 104.184C36.6451 105.762 40.9773 107.005 48.3183 107.005C69.373 107.005 74.7776 90.6243 81.9968 73.8889C82.0508 73.7636 82.079 73.6264 82.0785 73.49C81.9969 54.0487 70.5089 41 48.3183 41C37.0955 41 32.8837 43.4727 31.3872 45.7567C30.8181 46.6251 28.5886 47.6546 27.7954 46.9846L12.6193 34.1661C12.4903 34.0571 12.391 33.9173 12.3306 33.7597L5.9339 17.0513ZM52.9792 48.6457C53.6397 48.6162 54.1105 49.2873 53.9416 49.9266C45.9236 80.2756 66.2447 59.6028 66.2447 73.6987C66.2447 89.0264 67.2343 98.9174 54.3989 98.9174C39.0811 98.9174 30.8183 86.9573 30.8183 73.6987C30.8183 61.6872 37.8269 49.3227 52.9792 48.6457Z" fill="#0064D2"/>
<path d="M6.28089 92.4005C5.57163 93.7878 4.9486 94.8804 4.5 95.4659V17.4089C4.5 16.8542 5.26862 16.7121 5.46695 17.2301L11.8637 33.9384C11.9542 34.1749 12.1032 34.3846 12.2966 34.548L27.4727 47.3666C27.8083 47.65 28.2453 47.7157 28.6353 47.697C29.0343 47.6777 29.4595 47.5675 29.8561 47.4137C30.2554 47.2589 30.647 47.0516 30.9816 46.8206C31.3094 46.5941 31.6134 46.3236 31.8054 46.0307C33.1515 43.9763 37.1196 41.5 48.3183 41.5C59.3151 41.5 67.5943 44.7311 73.1346 50.3069C78.6763 55.8842 81.5381 63.8683 81.5785 73.4921C81.5788 73.5593 81.5646 73.6284 81.5377 73.6909C81.0402 74.8441 80.5522 75.9934 80.0679 77.1338C77.022 84.3064 74.1237 91.1315 69.9534 96.4129C65.1564 102.488 58.6824 106.505 48.3183 106.505C41.0229 106.505 36.797 105.267 34.3663 103.759C34.1806 103.644 33.9153 103.548 33.6357 103.466C33.3437 103.38 32.9911 103.296 32.6026 103.217C31.8247 103.059 30.8787 102.915 29.936 102.811C28.9944 102.707 28.0443 102.641 27.2599 102.642C26.8684 102.643 26.5075 102.66 26.2046 102.701C25.9215 102.738 25.6184 102.804 25.3964 102.945C23.2054 104.339 20.8179 105.479 19.4742 106.082C19.2093 106.201 18.8956 106.051 18.8259 105.746L13.6093 82.945C13.2846 81.5254 11.3198 81.3424 10.7434 82.6835C9.57656 85.3979 7.78154 89.4655 6.28089 92.4005ZM4.14867 95.8378C4.14875 95.8375 4.15179 95.8356 4.15756 95.833C4.15147 95.8368 4.14859 95.8381 4.14867 95.8378ZM4.53641 95.9711C4.53751 95.9735 4.538 95.9748 4.53798 95.9749C4.53795 95.975 4.53739 95.9738 4.53641 95.9711ZM66.7447 73.6987C66.7447 71.8837 66.4188 70.5584 65.8083 69.6053C65.1889 68.6384 64.3128 68.1103 63.3347 67.8254C62.3731 67.5453 61.2953 67.4953 60.2428 67.4848C59.9773 67.4821 59.714 67.482 59.4531 67.4818C58.6558 67.4813 57.8806 67.4808 57.1337 67.4098C56.1503 67.3164 55.2853 67.1046 54.5829 66.649C53.8941 66.2022 53.3183 65.4926 52.9596 64.3164C52.2268 61.9132 52.4215 57.6377 54.425 50.0543C54.6668 49.139 54.0045 48.0994 52.9569 48.1462C45.2341 48.4912 39.5581 51.8222 35.8223 56.6143C32.096 61.3943 30.3183 67.6022 30.3183 73.6987C30.3183 80.4276 32.4147 86.8534 36.4847 91.6053C40.5627 96.3665 46.598 99.4174 54.3989 99.4174C57.6672 99.4174 60.1227 98.7883 61.9463 97.5456C63.7771 96.298 64.9111 94.4731 65.6128 92.2037C66.3114 89.9444 66.5903 87.2174 66.6985 84.123C66.7771 81.875 66.7659 79.407 66.7539 76.7609C66.7494 75.7647 66.7447 74.7432 66.7447 73.6987Z" stroke="black"/>
</g>
<path d="M273.807 35.0021C241.995 35.0021 231 47.2293 231 50.0127H246.834H262.807C273.267 50.0127 282.325 44.6308 282.325 53.8348V56.1108C282.325 56.6631 281.877 57.1108 281.325 57.1108H276.307C251.662 57.1108 231 64.3205 231 78.951C231 93.3496 238.124 101.184 254.393 101.184C269.62 101.184 277.758 95.4056 281.362 91.7858C282.082 91.0624 283.737 91.6133 283.77 92.6337C283.79 93.2867 283.815 93.9126 283.841 94.497C283.888 95.5442 285.273 95.7781 285.68 94.8119L292.589 78.3958C292.967 77.4975 294.283 77.6099 294.503 78.5595C295.601 83.3028 297.613 91.6162 297.613 88.8474V55.9335C297.613 34.3522 289.16 35.0021 273.807 35.0021ZM257.952 78.9509C258.055 78.9511 258.162 78.9354 258.26 78.9046L281.024 71.7177C281.668 71.5142 282.322 71.9918 282.264 72.6652C281.727 78.976 277.314 91.1679 258.113 91.1679C246.779 91.1679 241.92 85.5118 241.92 78.951C241.92 67.0424 234.107 78.898 257.952 78.9509Z" fill="#F5AF02"/>
<path d="M304.158 42.7486C304.056 42.5349 304.033 42.2918 304.094 42.0628L309.283 22.4009C309.531 21.4612 310.839 21.3919 311.185 22.3001L330.421 72.784C330.498 72.9862 330.638 73.1579 330.821 73.2734L355.498 88.8611C356.214 89.3137 357.134 88.7258 357.024 87.8856L345.602 0.832184V42.2416C345.602 42.358 345.582 42.4735 345.542 42.5829L320.278 112.157C320.175 112.441 319.948 112.664 319.662 112.762L315.096 114.328C314.304 114.599 313.549 113.836 313.829 113.048L323.871 84.7488C323.96 84.4986 323.946 84.2234 323.832 83.9838L304.158 42.7486Z" fill="#86B817"/>
<g filter="url(#filter1_d_0_1)">
<path d="M155.497 44.3711L236.067 23.2934C236.234 18.5188 226.919 38.6866 226.919 38.6866L221.56 11.2941C221.56 11.2941 209.067 15.8162 208.913 20.2166C208.913 20.2166 211.71 10.9501 191.218 10.2345C169.638 9.48094 163.58 25.8969 155.576 42.5433C154.889 62.221 146.31 119.487 169.049 120.282C190.342 121.025 207.066 68.6814 207.066 68.6814L225.303 84.9715L155.497 44.3711ZM183.062 68.7714C193.331 36.6439 171.241 57.4904 171.744 43.1079C172.282 27.6853 149.279 20.2627 184.725 18.1555C200.365 18.7017 208.381 31.0304 207.915 44.371C207.481 56.8019 199.464 69.3442 183.062 68.7714Z" fill="#D200A4"/>
<path d="M155.313 54.3573C155.57 50.958 155.803 47.8619 155.952 45.2144L184.472 61.8022C184.041 63.744 183.423 65.9994 182.586 68.6192L182.385 69.2481L183.044 69.2711C187.247 69.4179 190.918 68.7172 194.065 67.3812L204.805 73.6281C204.467 74.5461 204.082 75.5655 203.654 76.6676C201.758 81.5523 199.01 88.0532 195.6 94.5273C192.188 101.006 188.126 107.434 183.609 112.188C179.083 116.953 174.175 119.96 169.066 119.782C163.655 119.593 160.059 116.067 157.717 110.377C155.369 104.673 154.333 96.8976 154.028 88.4757C153.61 76.9413 154.56 64.3413 155.313 54.3573ZM206.033 73.1851C206.321 72.3921 206.57 71.69 206.778 71.0939C207.001 70.4566 207.176 69.9402 207.303 69.5627L221.296 82.0624L206.033 73.1851ZM157.741 39.157C159.981 34.4195 162.15 29.8348 164.663 25.7741C164.664 25.7782 164.665 25.7822 164.667 25.7863C164.998 26.8558 165.609 28.0138 166.307 29.2386C166.521 29.6137 166.743 29.9953 166.97 30.3849C167.494 31.2848 168.043 32.2276 168.572 33.2321C169.621 35.2226 170.564 37.4038 170.999 39.7987L156.029 43.7149C156.046 43.3549 156.06 43.0049 156.072 42.6656C156.637 41.4905 157.191 40.3192 157.741 39.157ZM201.103 61.1152C199.216 63.2358 196.896 65.0085 194.128 66.2614L185.603 61.3029C186.371 57.5943 186.455 54.9767 186.043 53.1219C185.713 51.6319 185.057 50.6107 184.165 49.928C183.285 49.2541 182.221 48.9467 181.137 48.7904C180.269 48.6653 179.348 48.6327 178.464 48.6014C178.251 48.5939 178.04 48.5864 177.833 48.5777C176.744 48.5322 175.744 48.4538 174.892 48.1899C174.057 47.9309 173.39 47.5012 172.933 46.7598C172.468 46.0054 172.183 44.8684 172.243 43.1254C172.274 42.2363 172.23 41.3739 172.124 40.538L205.102 31.9108C206.785 35.6723 207.569 39.9513 207.416 44.3536C207.202 50.4743 205.121 56.5995 201.103 61.1152ZM223.919 25.9547L205.656 30.7324C204.857 29.095 203.887 27.557 202.748 26.1507C198.753 21.216 192.702 17.9337 184.742 17.6558L184.719 17.655L184.695 17.6564C177.112 18.1072 172.141 18.8028 169.03 19.7929C174.109 14.038 180.808 10.3713 191.2 10.7342C201.396 11.0902 205.63 13.5718 207.355 15.7999C208.216 16.9123 208.478 17.9936 208.531 18.7904C208.548 19.0527 208.543 19.2847 208.528 19.4771C208.461 19.7144 208.422 19.9552 208.413 20.1992L209.392 20.3611L208.913 20.2166C209.392 20.3611 209.392 20.3606 209.392 20.36L209.393 20.3587L209.393 20.3555L209.396 20.3465L209.404 20.3184C209.41 20.2953 209.418 20.2634 209.427 20.2233C209.445 20.1431 209.468 20.0298 209.488 19.8878C209.498 19.8206 209.507 19.7468 209.515 19.6669C209.745 18.9392 210.355 18.1536 211.283 17.3425C212.435 16.3359 213.973 15.3789 215.53 14.5461C217.083 13.7155 218.634 13.0194 219.799 12.5304C220.369 12.291 220.846 12.1017 221.183 11.9712L223.919 25.9547ZM227.116 37.0872L225.081 26.6844L233.614 24.4519C232.862 25.6776 231.985 27.2887 231.112 28.9692C229.955 31.1984 228.793 33.5755 227.921 35.3939C227.612 36.0387 227.339 36.6136 227.116 37.0872Z" stroke="black"/>
</g>
<path d="M182.523 9.01146L182.523 111" stroke="#DC107E"/>
<line x1="182.463" y1="22.8124" x2="216.463" y2="106.812" stroke="#C91E85"/>
<defs>
<filter id="filter0_d_0_1" x="0" y="16.4078" width="86.0785" height="98.5974" filterUnits="userSpaceOnUse" color-interpolation-filters="sRGB">
<feFlood flood-opacity="0" result="BackgroundImageFix"/>
<feColorMatrix in="SourceAlpha" type="matrix" values="0 0 0 0 0 0 0 0 0 0 0 0 0 0 0 0 0 0 127 0" result="hardAlpha"/>
<feOffset dy="4"/>
<feGaussianBlur stdDeviation="2"/>
<feComposite in2="hardAlpha" operator="out"/>
<feColorMatrix type="matrix" values="0 0 0 0 0 0 0 0 0 0 0 0 0 0 0 0 0 0 0.25 0"/>
<feBlend mode="normal" in2="BackgroundImageFix" result="effect1_dropShadow_0_1"/>
<feBlend mode="normal" in="SourceGraphic" in2="effect1_dropShadow_0_1" result="shape"/>
</filter>
<filter id="filter1_d_0_1" x="149.426" y="10.2095" width="90.6438" height="118.08" filterUnits="userSpaceOnUse" color-interpolation-filters="sRGB">
<feFlood flood-opacity="0" result="BackgroundImageFix"/>
<feColorMatrix in="SourceAlpha" type="matrix" values="0 0 0 0 0 0 0 0 0 0 0 0 0 0 0 0 0 0 127 0" result="hardAlpha"/>
<feOffset dy="4"/>
<feGaussianBlur stdDeviation="2"/>
<feComposite in2="hardAlpha" operator="out"/>
<feColorMatrix type="matrix" values="0 0 0 0 0 0 0 0 0 0 0 0 0 0 0 0 0 0 0.25 0"/>
<feBlend mode="normal" in2="BackgroundImageFix" result="effect1_dropShadow_0_1"/>
<feBlend mode="normal" in="SourceGraphic" in2="effect1_dropShadow_0_1" result="shape"/>
</filter>
</defs>
</svg>
